<svg width="283" height="48" viewBox="0 0 283 48" fill="none" xmlns="http://www.w3.org/2000/svg">
<path fill-rule="evenodd" clip-rule="evenodd" d="M108.411 23.9448H97.0972V22.107C97.0972 20.8266 98.1505 19.7853 99.4413 19.7853H106.067C107.36 19.7853 108.411 20.8266 108.411 22.107V23.9448ZM106.067 17.2515H99.4413C96.7389 17.2515 94.5388 19.4305 94.5388 22.107V28.3144C94.5388 30.9929 96.7389 33.1719 99.4413 33.1719H109.422C110.126 33.1719 110.701 32.603 110.701 31.9031C110.701 31.205 110.126 30.6361 109.422 30.6361H99.4413C98.1505 30.6361 97.0972 29.5948 97.0972 28.3144V26.4786H110.969V22.107C110.969 19.4305 108.769 17.2515 106.067 17.2515Z" fill="white"/>
<path fill-rule="evenodd" clip-rule="evenodd" d="M266.871 23.9448H255.558V22.107C255.558 20.8266 256.611 19.7853 257.902 19.7853H264.527C265.82 19.7853 266.871 20.8266 266.871 22.107V23.9448ZM264.527 17.2515H257.902C255.199 17.2515 252.999 19.4305 252.999 22.107V28.3144C252.999 30.9929 255.199 33.1719 257.902 33.1719H267.882C268.589 33.1719 269.161 32.603 269.161 31.9031C269.161 31.205 268.589 30.6361 267.882 30.6361H257.902C256.611 30.6361 255.558 29.5948 255.558 28.3144V26.4786H269.43V22.107C269.43 19.4305 267.232 17.2515 264.527 17.2515Z" fill="white"/>
<path fill-rule="evenodd" clip-rule="evenodd" d="M224.19 28.3144C224.19 29.5948 223.139 30.6361 221.846 30.6361H215.222C213.929 30.6361 212.876 29.5948 212.876 28.3144V26.4786H224.19V28.3144ZM221.846 17.2515H216.453C215.746 17.2515 215.173 17.8184 215.173 18.5165C215.173 19.2184 215.746 19.7853 216.453 19.7853H221.846C223.139 19.7853 224.19 20.8266 224.19 22.107V23.9448H210.318V28.3144C210.318 30.9929 212.518 33.1719 215.222 33.1719H221.846C224.55 33.1719 226.748 30.9929 226.748 28.3144V22.107C226.748 19.4305 224.55 17.2515 221.846 17.2515Z" fill="white"/>
<path fill-rule="evenodd" clip-rule="evenodd" d="M175.048 28.3144C175.048 29.5948 173.997 30.6361 172.704 30.6361H166.08C164.787 30.6361 163.734 29.5948 163.734 28.3144V22.107C163.734 20.8266 164.787 19.7853 166.08 19.7853H172.704C173.997 19.7853 175.048 20.8266 175.048 22.107V28.3144ZM172.704 17.2515H166.08C163.376 17.2515 161.176 19.4305 161.176 22.107V28.3144C161.176 30.9929 163.376 33.1719 166.08 33.1719H172.704C175.408 33.1719 177.606 30.9929 177.606 28.3144V22.107C177.606 19.4305 175.408 17.2515 172.704 17.2515Z" fill="white"/>
<path fill-rule="evenodd" clip-rule="evenodd" d="M243.724 17.252H237.1C234.396 17.252 232.198 19.431 232.198 22.1075V31.9035C232.198 32.6035 232.77 33.1705 233.475 33.1705C234.182 33.1705 234.754 32.6035 234.754 31.9035V22.1075C234.754 20.8271 235.808 19.7858 237.1 19.7858H243.724C245.017 19.7858 246.068 20.8271 246.068 22.1075V31.9035C246.068 32.6035 246.643 33.1705 247.349 33.1705C248.054 33.1705 248.628 32.6035 248.628 31.9035V22.1075C248.628 19.431 246.428 17.252 243.724 17.252Z" fill="white"/>
<path fill-rule="evenodd" clip-rule="evenodd" d="M196.793 28.3144C196.793 29.5948 195.742 30.6361 194.449 30.6361H187.825C186.53 30.6361 185.479 29.5948 185.479 28.3144V25.2117V22.107C185.479 20.8266 186.53 19.7853 187.825 19.7853H194.449C195.742 19.7853 196.793 20.8266 196.793 22.107V28.3144ZM194.449 17.2515H187.825C185.121 17.2515 182.921 19.4305 182.921 22.107V25.2117V28.3144V39.1787C182.921 39.8787 183.493 40.4456 184.2 40.4456C184.907 40.4456 185.479 39.8787 185.479 39.1787V32.578C186.176 32.9559 186.976 33.1719 187.825 33.1719H194.449C197.151 33.1719 199.351 30.9929 199.351 28.3144V22.107C199.351 19.4305 197.151 17.2515 194.449 17.2515Z" fill="white"/>
<path fill-rule="evenodd" clip-rule="evenodd" d="M156.535 17.252H149.66C146.957 17.252 144.757 19.431 144.757 22.1075V31.9035C144.757 32.6035 145.33 33.1705 146.037 33.1705C146.741 33.1705 147.316 32.6035 147.316 31.9035V22.1075C147.316 20.8271 148.367 19.7858 149.66 19.7858H156.535C157.241 19.7858 157.814 19.2189 157.814 18.5189C157.814 17.8189 157.241 17.252 156.535 17.252Z" fill="white"/>
<path fill-rule="evenodd" clip-rule="evenodd" d="M118.831 19.7858H128.809C129.518 19.7858 130.088 19.2189 130.088 18.5169C130.088 17.8189 129.518 17.252 128.809 17.252H118.831C116.126 17.252 113.926 19.431 113.926 22.1075V28.3149C113.926 30.9934 116.126 33.1705 118.831 33.1705H128.809C129.518 33.1705 130.088 32.6035 130.088 31.9035C130.088 31.2036 129.518 30.6366 128.809 30.6366H118.831C117.538 30.6366 116.487 29.5953 116.487 28.3149V22.1075C116.487 20.8271 117.538 19.7858 118.831 19.7858Z" fill="white"/>
<path fill-rule="evenodd" clip-rule="evenodd" d="M82.1582 24.5842C82.8649 24.5842 83.4373 24.0172 83.4373 23.3172C83.4373 22.6172 82.8649 22.0503 82.1582 22.0503H64.392V18.319C64.392 17.0385 65.4453 15.9972 66.7381 15.9972H75.0517C75.7584 15.9972 76.3308 15.4303 76.3308 14.7303C76.3308 14.0303 75.7584 13.4634 75.0517 13.4634H66.7381C64.0337 13.4634 61.8336 15.6424 61.8336 18.319V28.3136C61.8336 30.9921 64.0337 33.173 66.7381 33.173H82.1582C82.8649 33.173 83.4373 32.6042 83.4373 31.9042C83.4373 31.2061 82.8649 30.6372 82.1582 30.6372H66.7381C65.4453 30.6372 64.392 29.594 64.392 28.3136V24.5842H82.1582Z" fill="white"/>
<path fill-rule="evenodd" clip-rule="evenodd" d="M88.3494 13.186C87.6427 13.186 87.0703 13.753 87.0703 14.453V32.1051C87.0703 32.8031 87.6427 33.3701 88.3494 33.3701C89.0562 33.3701 89.6286 32.8031 89.6286 32.1051V14.453C89.6286 13.753 89.0562 13.186 88.3494 13.186Z" fill="white"/>
<path fill-rule="evenodd" clip-rule="evenodd" d="M205.609 13.186C204.902 13.186 204.33 13.753 204.33 14.453V32.1051C204.33 32.8031 204.902 33.3701 205.609 33.3701C206.316 33.3701 206.888 32.8031 206.888 32.1051V14.453C206.888 13.753 206.316 13.186 205.609 13.186Z" fill="white"/>
<path fill-rule="evenodd" clip-rule="evenodd" d="M141.529 17.252H136.348V14.452C136.348 13.7539 135.775 13.187 135.069 13.187C134.362 13.187 133.789 13.7539 133.789 14.452V32.1041C133.789 32.8022 134.362 33.371 135.069 33.371C135.775 33.371 136.348 32.8022 136.348 32.1041V19.7858H141.529C142.235 19.7858 142.808 19.2189 142.808 18.5189C142.808 17.8189 142.235 17.252 141.529 17.252Z" fill="white"/>
<path fill-rule="evenodd" clip-rule="evenodd" d="M281.273 17.252H276.092V14.452C276.092 13.7539 275.519 13.187 274.813 13.187C274.108 13.187 273.533 13.7539 273.533 14.452V32.1041C273.533 32.8022 274.108 33.371 274.813 33.371C275.519 33.371 276.092 32.8022 276.092 32.1041V19.7858H281.273C281.979 19.7858 282.552 19.2189 282.552 18.5189C282.552 17.8189 281.979 17.252 281.273 17.252Z" fill="white"/>
<path fill-rule="evenodd" clip-rule="evenodd" d="M46.9848 23.8423C46.9848 36.6928 36.4671 47.1099 23.4924 47.1099C10.5177 47.1099 0 36.6928 0 23.8423C0 10.9918 10.5177 0.574707 23.4924 0.574707C36.4671 0.574707 46.9848 10.9918 46.9848 23.8423Z" fill="white"/>
<path fill-rule="evenodd" clip-rule="evenodd" d="M35.1954 31.9973H16.2437C15.1231 31.9973 14.2114 31.0943 14.2114 29.9845V26.2402H35.1954C36.5298 26.2402 37.6157 25.1647 37.6157 23.8431C37.6157 22.5195 36.5298 21.444 35.1954 21.444H14.2114V17.7007C14.2114 16.5908 15.1231 15.6869 16.2437 15.6869H26.4624C27.7968 15.6869 28.8828 14.6114 28.8828 13.2897C28.8828 11.9671 27.7968 10.8916 26.4624 10.8916H16.2437C12.4533 10.8916 9.36877 13.9466 9.36877 17.7007V29.9845C9.36877 33.7386 12.4533 36.7936 16.2437 36.7936H35.1954C36.5298 36.7936 37.6157 35.718 37.6157 34.3954C37.6157 33.0728 36.5298 31.9973 35.1954 31.9973Z" fill="#E1251B"/>
</svg>
